<svg id="Capa_1" enable-background="new 0 0 512 512" height="512" viewBox="0 0 512 512" width="512" xmlns="http://www.w3.org/2000/svg"><g id="XMLID_1459_"><path id="XMLID_1701_" d="m110.5 50c-11.046 0-20-8.954-20-20 0-11.046 8.954-20 20-20 11.046 0 20 8.954 20 20 0 11.046-8.954 20-20 20z" fill="#ccf5fc"/><path id="XMLID_1700_" d="m214.5 50c11.046 0 20-8.954 20-20 0-11.046-8.954-20-20-20-11.046 0-20 8.954-20 20 0 11.046 8.954 20 20 20z" fill="#ccf5fc"/><circle id="XMLID_674_" cx="443.5" cy="388.333" fill="#33d6f5" r="40"/><path id="XMLID_1657_" d="m423.5 348.333v-78.667c0-17.645-14.355-32-32-32s-32 14.355-32 32v101.5 22.167c0 59.919-48.748 108.667-108.667 108.667s-108.666-48.748-108.666-108.667v-22.167h40v22.167c0 37.863 30.804 68.667 68.666 68.667 37.863 0 68.667-30.804 68.667-68.667v-22.167-101.5c0-39.701 32.299-72 72-72s72 32.299 72 72v78.667z" fill="#ccf5fc"/><path id="XMLID_1626_" d="m274.5 125c-12.15 0-22 9.85-22 22v46c0 49.922-40.857 90.481-90.889 89.996-49.546-.48-89.111-41.594-89.111-91.143v-44.853c0-12.15-9.85-22-22-22s-22 9.85-22 22v44.526c0 66.715 48.256 122.97 111.998 133.645v43.996h44.004v-43.982c63.456-10.527 111.998-65.79 111.998-132.185v-46c0-12.15-9.849-22-22-22z" fill="#ff7d97"/><g id="XMLID_426_"><path id="XMLID_1157_" d="m473.499 348.36c0-.009.001-.017.001-.026v-78.667c0-45.215-36.785-82-82-82s-82 36.785-82 82v123.667c0 32.349-26.318 58.667-58.667 58.667s-58.666-26.318-58.666-58.667v-17.75c1.456-1.737 2.335-3.974 2.335-6.417v-35.763c29.957-6.839 57.19-23.27 77.391-46.855 22.316-26.059 34.607-59.281 34.607-93.549v-46c0-14.153-9.239-26.181-22-30.391v-46.609c0-24.661-17.95-45.195-41.468-49.257-3.911-12.024-15.22-20.743-28.532-20.743-16.542 0-30 13.458-30 30s13.458 30 30 30c12.638 0 23.467-7.859 27.879-18.943 12.731 3.47 22.121 15.128 22.121 28.943v46.609c-12.761 4.21-22 16.238-22 30.391v46c0 21.477-8.431 41.655-23.739 56.815-15.116 14.97-35.464 23.184-56.654 23.183-.265 0 .266.002 0 0-43.676-.423-79.606-36.826-79.606-81.146v-44.852c0-14.153-9.239-26.181-22-30.391v-46.609c0-13.815 9.39-25.473 22.121-28.943 4.411 11.084 15.24 18.943 27.878 18.943 16.542 0 30-13.458 30-30s-13.458-30-30-30c-13.312 0-24.621 8.719-28.532 20.743-23.518 4.062-41.468 24.596-41.468 49.257v46.609c-12.761 4.21-22 16.238-22 30.391v44.526c0 34.474 12.235 67.959 34.453 94.287 20.22 23.96 47.507 40.638 77.545 47.561v35.792c0 2.044.616 3.943 1.669 5.527v18.64c0 65.434 53.233 118.667 118.666 118.667 14.771 0 29.196-2.695 42.874-8.011 5.147-2.001 7.698-7.796 5.697-12.943-2.001-5.148-7.796-7.697-12.943-5.698-11.357 4.415-23.345 6.653-35.628 6.653-54.404 0-98.666-44.262-98.666-98.667v-14.167h20v14.167c0 43.377 35.289 78.667 78.666 78.667s78.667-35.29 78.667-78.667v-123.667c0-34.187 27.813-62 62-62s62 27.813 62 62v69.673c-3.232-.659-6.576-1.006-10-1.006s-6.768.347-10 1.006v-69.673c0-23.159-18.841-42-42-42s-42 18.841-42 42v123.667c0 12.236-2.222 24.18-6.604 35.5-1.993 5.15.566 10.942 5.717 12.935 1.187.459 2.406.677 3.607.677 4.01 0 7.794-2.43 9.328-6.394 5.276-13.632 7.951-28.005 7.951-42.719v-123.666c0-12.131 9.869-22 22-22s22 9.869 22 22v78.667c0 .009.001.017.001.026-12.137 9.131-20.001 23.65-20.001 39.974 0 27.57 22.43 50 50 50s50-22.43 50-50c.001-16.324-7.864-30.843-20-39.974zm-258.999-308.36c-5.514 0-10-4.486-10-10s4.486-10 10-10 10 4.486 10 10-4.486 10-10 10zm-104-20c5.514 0 10 4.486 10 10s-4.486 10-10 10-10-4.486-10-10 4.486-10 10-10zm-72 171.526v-44.526c0-6.617 5.383-12 12-12s12 5.383 12 12v44.853c0 55.241 44.418 100.613 99.015 101.143 26.837.294 52.194-10.027 71.319-28.969 19.131-18.947 29.666-44.171 29.666-71.027v-46c0-6.617 5.383-12 12-12s12 5.383 12 12v46c0 60.915-43.585 112.357-103.635 122.32-4.825.801-8.363 4.974-8.363 9.865v33.981h-24.004v-33.996c0-4.885-3.53-9.056-8.349-9.863-59.089-9.894-103.649-63.109-103.649-123.781zm405 226.807c-16.542 0-30-13.458-30-30s13.458-30 30-30 30 13.458 30 30-13.458 30-30 30z"/><path id="XMLID_1166_" d="m443.5 378.33c-2.63 0-5.21 1.07-7.07 2.93s-2.93 4.44-2.93 7.07c0 2.64 1.069 5.21 2.93 7.07 1.86 1.87 4.44 2.93 7.07 2.93s5.21-1.06 7.069-2.93c1.86-1.86 2.931-4.43 2.931-7.07 0-2.63-1.07-5.21-2.931-7.07-1.859-1.86-4.439-2.93-7.069-2.93z"/><path id="XMLID_1167_" d="m327.64 460.14c-2.63 0-5.21 1.06-7.08 2.92-1.859 1.87-2.92 4.45-2.92 7.08s1.061 5.2 2.92 7.07c1.87 1.86 4.45 2.93 7.08 2.93s5.21-1.07 7.07-2.93c1.859-1.86 2.93-4.44 2.93-7.07 0-2.64-1.07-5.21-2.93-7.08-1.86-1.86-4.44-2.92-7.07-2.92z"/></g></g></svg>