<svg id="Capa_1" enable-background="new 0 0 512 512" height="512" viewBox="0 0 512 512" width="512" xmlns="http://www.w3.org/2000/svg"><g><g><path clip-rule="evenodd" d="m370.225 92.95c-17.175-52.144-74.442-75.175-149.362-53.27-16.245 4.702-22.777 8.897-29.337 8.897-6.532 0-13.064-4.195-29.309-8.897-81.538-23.848-142.155 5.518-152.967 67.743v43.078c.394 2.647.845 5.321 1.38 8.024 8.446 42.656 39.755 75.007 39.755 135.739 0 56.424 0 139.709 57.887 139.709s57.436-73.402 63.771-129.741c3.21-28.409 11.346-37.532 19.483-37.532 8.165 0 16.302 9.122 19.511 37.532 6.335 56.34 5.884 129.741 63.771 129.741 48.99 0 56.507-59.718 57.661-112.257 23.256-90.155 33.645-156.856 37.756-228.766z" fill="#faf5dc" fill-rule="evenodd"/></g><g><path clip-rule="evenodd" d="m443.033 150.839c-15.795-29.732-42.655-49.836-72.809-57.888-27.423-7.349-57.605-4.73-84.69 9.657-56.789 30.155-78.412 100.685-48.229 157.475 19.624 36.968 56.282 59.014 95.164 61.633 20.919 1.408 42.458-2.816 62.335-13.374 56.788-30.155 78.411-100.685 48.229-157.503z" fill="#c3ddff" fill-rule="evenodd"/></g><g><path clip-rule="evenodd" d="m324.614 189.891v-21.06c0-4.927 4.026-8.982 8.981-8.982h13.148c4.927 0 8.981 4.054 8.981 8.982v21.06h6.645 14.415c4.955 0 9.01 4.054 9.01 9.01v13.121c0 4.955-4.054 9.01-9.01 9.01h-21.06v21.06c0 4.955-4.054 9.01-8.981 9.01h-8.447-4.702c-4.955 0-8.981-4.054-8.981-9.01v-21.06h-21.06c-4.955 0-9.01-4.054-9.01-9.01v-13.122c0-4.955 4.054-9.01 9.01-9.01h21.061zm88.997-23.426c-8.784-16.527-22.327-28.888-38.065-36.265-22.862-10.727-50.341-10.924-74.385 1.83-40.543 21.539-55.972 71.882-34.434 112.454 13.683 25.762 38.995 41.389 66.052 43.838 15.513 1.38 31.59-1.549 46.399-9.404 40.543-21.538 55.972-71.881 34.433-112.453z" fill="#edf4ff" fill-rule="evenodd"/></g><g><path clip-rule="evenodd" d="m385.794 198.9c0-4.955-4.054-9.01-9.01-9.01h-14.414-6.645v-21.06c0-4.927-4.054-8.982-8.981-8.982h-13.148c-4.955 0-8.981 4.054-8.981 8.982v21.06h-21.06c-4.955 0-9.01 4.054-9.01 9.01v13.121c0 4.955 4.054 9.01 9.01 9.01h21.06v21.06c0 4.955 4.026 9.01 8.981 9.01h4.702 8.447c4.927 0 8.981-4.054 8.981-9.01v-21.06h21.06c4.955 0 9.01-4.054 9.01-9.01v-13.121z" fill="#f37c7c" fill-rule="evenodd"/></g><g><path clip-rule="evenodd" d="m438.754 354.545-29.394-55.354-20.553-1.661-9.77 17.766 29.394 55.354h19.99z" fill="#7e707d" fill-rule="evenodd"/></g><g><path clip-rule="evenodd" d="m499.963 423.527-24.833-46.71-36.376 9.77-32.181 26.692 24.833 46.71c10.023 18.864 33.645 26.072 52.509 16.049 9.545-5.068 16.133-13.656 18.976-23.313 2.083-7.095 2.168-14.754 0-22.074-.732-2.422-1.689-4.816-2.928-7.124z" fill="#edf4ff" fill-rule="evenodd"/></g><g><path clip-rule="evenodd" d="m370.225 92.95c-17.175-52.144-74.442-75.175-149.362-53.27-12.501 3.632-19.258 6.954-24.692 8.278 21.989 20.131 40.599 48.878 54.057 83.454 9.488-11.516 21.341-21.398 35.306-28.803 27.086-14.389 57.268-17.007 84.691-9.659z" fill="#f5ebcd" fill-rule="evenodd"/></g><g><path clip-rule="evenodd" d="m274.808 433.972c48.99 0 56.507-59.718 57.661-112.257-21.707-1.464-42.711-8.982-60.477-21.764-4.139 44.965-15.767 85.988-32.744 119.577 8.418 9.01 19.849 14.444 35.56 14.444z" fill="#f5ebcd" fill-rule="evenodd"/></g><g><path clip-rule="evenodd" d="m379.178 278.919c40.543-21.539 55.972-71.882 34.434-112.454-8.784-16.527-22.327-28.888-38.065-36.265-2.534-1.183-5.152-2.252-7.771-3.182-12.163-4.28-25.283-5.716-38.319-4.026 8.587 1.098 16.977 3.548 24.805 7.208 4.364 2.055 8.559 4.477 12.529 7.264 2.759 1.943 5.378 4.054 7.912 6.335 6.954 6.307 12.951 13.909 17.625 22.665 21.539 40.572 6.11 90.915-34.462 112.454-5.321 2.844-10.84 5.04-16.442 6.617-2.872.816-5.715 1.464-8.615 1.943-1.07.169-2.14.338-3.21.479 1.042.141 2.112.253 3.182.366 2.618.225 5.265.338 7.912.31 13.005-.057 26.181-3.182 38.485-9.714z" fill="#dbeaff" fill-rule="evenodd"/></g><g><path clip-rule="evenodd" d="m374.504 129.722c.338.169.704.31 1.042.479-.338-.169-.704-.31-1.042-.479zm68.529 21.117c-15.795-29.732-42.655-49.836-72.809-57.888-18.16-4.871-37.502-5.35-56.394-.957.619.141 1.211.282 1.802.45 19.596 5.237 37.812 15.57 52.509 30.352 2.196 2.196 4.308 4.505 6.363 6.926.338.169.704.31 1.042.479 15.739 7.377 29.281 19.737 38.065 36.265 21.539 40.572 6.11 90.915-34.434 112.454-1.999 1.07-4.026 2.027-6.053 2.9-9.066 10.333-20.103 19.202-32.941 26.016-1.577.845-3.181 1.661-4.786 2.421-.929.422-1.858.845-2.759 1.267-6.785 3.013-13.74 5.293-20.75 6.926 6.729 1.689 13.627 2.787 20.581 3.266 15.485 1.042 31.336-1.014 46.568-6.419 5.349-1.915 10.614-4.223 15.767-6.954 5.124-2.731 9.995-5.8 14.556-9.151 45.724-33.675 61.124-96.688 33.673-148.353z" fill="#a4ccff" fill-rule="evenodd"/></g><g><path clip-rule="evenodd" d="m438.754 354.545-29.394-55.354c-4.561 3.35-9.432 6.419-14.556 9.151-.084.028-.141.056-.197.113l28.802 54.228h.028z" fill="#6a5d6a" fill-rule="evenodd"/></g><g><path clip-rule="evenodd" d="m499.963 423.527-24.833-46.71-18.357 9.77 24.833 46.71c1.239 2.309 2.196 4.702 2.928 7.123 2.168 7.32 2.083 14.979 0 22.046-1.915 6.476-5.462 12.445-10.474 17.203 3.379-.732 6.673-1.943 9.854-3.632 9.545-5.068 16.133-13.656 18.976-23.313 2.083-7.095 2.168-14.754 0-22.074-.731-2.421-1.688-4.815-2.927-7.123z" fill="#dbeaff" fill-rule="evenodd"/></g><g><path clip-rule="evenodd" d="m475.13 376.816-13.599-25.565c-1.999-3.801-6.757-5.237-10.53-3.238l-12.247 6.532c-14.19 7.518-28.38 15.063-42.57 22.609-3.773 2.027-5.237 6.757-3.21 10.53l13.599 25.594z" fill="#f9f7f8" fill-rule="evenodd"/></g><g><path clip-rule="evenodd" d="m475.13 376.816-13.599-25.565c-1.999-3.801-6.757-5.237-10.53-3.238l-12.247 6.532-6.11 3.238c3.773-1.999 8.503-.563 10.53 3.21l13.599 25.594z" fill="#f0f0f0" fill-rule="evenodd"/></g><g><path d="m297.645 125.406c-.001 0-.002.001-.002.001-44.137 23.448-60.977 78.444-37.538 122.595 16.272 30.631 47.732 48.114 80.222 48.114 14.327 0 28.858-3.401 42.37-10.575 44.137-23.448 60.977-78.443 37.538-122.595-23.447-44.137-78.439-60.977-122.59-37.54zm78.017 146.889c-11.279 5.988-23.401 8.826-35.36 8.826-27.113-.001-53.372-14.592-66.95-40.152-19.561-36.847-5.508-82.745 31.328-102.314 36.847-19.559 82.741-5.506 102.309 31.328 19.56 36.846 5.506 82.744-31.327 102.312z"/><path d="m376.785 182.391h-13.56v-13.561c0-9.088-7.393-16.481-16.481-16.481h-13.149c-9.087 0-16.48 7.393-16.48 16.481v13.561h-13.561c-9.103 0-16.509 7.406-16.509 16.509v13.12c0 9.103 7.406 16.509 16.509 16.509h13.561v13.561c0 9.103 7.393 16.509 16.48 16.509h13.149c9.088 0 16.481-7.406 16.481-16.509v-13.56h13.56c9.104 0 16.51-7.406 16.51-16.509v-13.12c-.001-9.104-7.406-16.51-16.51-16.51zm1.51 29.63c0 .819-.691 1.51-1.511 1.51h-21.059c-4.142 0-7.5 3.358-7.5 7.5v21.061c0 .805-.692 1.51-1.482 1.51h-13.149c-.803 0-1.481-.691-1.481-1.51v-21.061c0-4.142-3.357-7.5-7.5-7.5h-21.06c-.818 0-1.51-.691-1.51-1.51v-13.12c0-.819.691-1.51 1.51-1.51h21.06c4.142 0 7.5-3.358 7.5-7.5v-21.061c0-.803.679-1.482 1.481-1.482h13.149c.79 0 1.482.692 1.482 1.482v21.061c0 4.142 3.357 7.5 7.5 7.5h21.059c.819 0 1.511.691 1.511 1.51z"/><path d="m506.585 420.006-24.796-46.633c-.013-.026-.023-.052-.036-.078-.014-.025-.03-.048-.044-.073l-13.539-25.463c-1.896-3.603-5.093-6.253-9.001-7.461-3.92-1.211-8.068-.826-11.687 1.092l-5.631 2.994-22.904-43.133c14.072-11.53 25.396-26.023 33.306-42.791 11.09-23.51 14.564-50.454 9.779-75.87-.766-4.071-4.686-6.748-8.757-5.983-4.07.766-6.749 4.687-5.982 8.757 8.864 47.093-13.643 93.852-56.006 116.353-17.982 9.553-37.814 13.798-57.637 12.571-.332-.053-.669-.092-1.015-.099-.057-.001-.112-.002-.168-.002-.072 0-.142.009-.214.011-8.05-.603-16.091-2.108-23.999-4.531-27.834-8.53-50.678-27.388-64.326-53.104-13.655-25.693-16.479-55.173-7.951-83.009 8.527-27.832 27.376-50.676 53.077-64.323 25.71-13.658 55.2-16.486 83.033-7.962 27.834 8.523 50.679 27.376 64.322 53.086 1.942 3.657 6.481 5.049 10.14 3.109 3.659-1.942 5.05-6.482 3.109-10.141-15.523-29.25-41.512-50.699-73.18-60.396-.16-.049-.32-.092-.48-.141-9.781-26.211-29.133-45.28-56.202-55.275-28.25-10.432-63.189-10.097-101.019.965-7.135 2.065-12.416 4.018-16.659 5.587-4.908 1.815-8.151 3.014-10.593 3.014-2.42 0-5.652-1.196-10.544-3.006-4.247-1.571-9.532-3.527-16.661-5.59-36.533-10.681-70.503-11.36-98.239-1.959-3.923 1.329-6.025 5.587-4.696 9.51 1.33 3.923 5.587 6.024 9.51 4.696 24.804-8.406 55.655-7.662 89.236 2.156 6.625 1.918 11.627 3.768 15.646 5.256 6.178 2.286 10.642 3.938 15.749 3.938 5.127 0 9.602-1.655 15.796-3.946 4.016-1.485 9.014-3.333 15.646-5.253 62.652-18.319 113.851-4.2 134.831 35.854-25.897-3.774-52.233.743-75.781 13.252-29.238 15.525-50.682 41.513-60.382 73.176-9.702 31.669-6.489 65.209 9.045 94.437 15.524 29.252 41.512 50.706 73.177 60.41 6.905 2.116 13.899 3.598 20.918 4.492-.68 20.316-2.729 46.656-10.202 66.386-8.163 21.55-20.799 31.587-39.766 31.587-19.774 0-32.893-9.736-41.286-30.64-8.005-19.938-10.555-46.66-13.02-72.502-.631-6.611-1.283-13.448-2.013-19.941-1.633-14.455-4.544-25.053-8.898-32.401-5.774-9.743-13.011-11.788-18.066-11.788-5.047 0-12.273 2.046-18.043 11.791-4.351 7.35-7.26 17.947-8.893 32.402-.729 6.49-1.382 13.327-2.013 19.939-2.465 25.842-5.015 52.563-13.02 72.501-8.393 20.904-21.511 30.64-41.285 30.64-21.974 0-35.762-13.689-43.392-43.08-6.995-26.948-6.995-61.426-6.995-89.129 0-38.977-12.539-67.126-23.602-91.961-6.795-15.253-13.212-29.66-16.294-45.228-8.307-42.115.94-76.777 26.036-97.601 3.188-2.645 3.628-7.373.983-10.56-2.644-3.187-7.374-3.627-10.56-.983-29.523 24.494-40.594 64.287-31.174 112.049 3.411 17.226 10.162 32.38 17.308 48.424 10.965 24.617 22.304 50.071 22.304 85.858 0 28.557 0 64.097 7.477 92.898 9.355 36.037 28.839 54.31 57.91 54.31 25.961 0 44.534-13.475 55.204-40.05 8.812-21.947 11.466-49.764 14.032-76.666.653-6.851 1.271-13.323 1.986-19.683 2.759-24.421 9.076-30.874 12.031-30.874 3.183 0 9.306 6.503 12.059 30.87.716 6.364 1.333 12.835 1.987 19.686 2.566 26.902 5.22 54.72 14.032 76.666 10.67 26.576 29.244 40.051 55.205 40.051 25.321 0 43.419-13.886 53.793-41.273 8.134-21.475 10.392-48.187 11.151-70.701.195.001.39.011.585.011 11.841-.001 23.619-1.731 35.03-5.135l22.922 43.167-5.625 2.991c-.01.005-.02.011-.029.016-7.437 3.996-10.248 13.276-6.283 20.657l13.565 25.521c.013.024.022.049.034.073.009.017.021.032.031.049l24.801 46.659c5.787 10.892 15.508 18.887 27.37 22.511 4.5 1.374 9.095 2.056 13.662 2.056 7.468 0 14.858-1.823 21.618-5.414 22.55-11.981 31.142-40.087 19.152-62.653zm-52.073-65.366c.065-.034.142-.037.229-.011.113.035.144.092.17.143l10.075 18.947-55.307 29.414-10.098-18.997c-.011-.021-.037-.07-.006-.174.04-.129.119-.179.153-.197zm-64.926-35.47c2.948-1.287 5.866-2.68 8.737-4.205 2.858-1.518 5.638-3.141 8.344-4.855l21.939 41.315-17.072 9.076zm90.809 150.244c-7.358 3.91-15.832 4.712-23.859 2.259-8.029-2.452-14.602-7.852-18.508-15.205l-21.311-40.092 55.309-29.415 21.314 40.084c8.108 15.261 2.302 34.268-12.945 42.369z"/></g></g></svg>