<svg id="Capa_1" enable-background="new 0 0 512 512" height="512" viewBox="0 0 512 512" width="512" xmlns="http://www.w3.org/2000/svg"><g><path d="m290.137 0h-51.2c-11.86 0-22.3 6.054-28.417 15.235-.764 1.146-2.045 1.837-3.422 1.836l-10.827-.005c-28.277 0-51.2 22.923-51.2 51.2v88.836h221.867v-80.302c-.002-42.415-34.386-76.8-76.801-76.8z" fill="#474f54"/><path d="m290.137 0h-23.694c42.415 0 76.8 34.385 76.8 76.8v80.303h23.694v-80.303c-.001-42.415-34.385-76.8-76.8-76.8z" fill="#32393f"/><path d="m153.593 324.267c-37.7 0-68.263 30.562-68.263 68.263v102.404c0 9.426 7.641 17.067 17.067 17.067h119.473l34.13-15.196 34.138 15.195h119.465c9.426 0 17.067-7.641 17.067-17.067l-.003-102.403c0-37.701-30.562-68.263-68.263-68.263z" fill="#f9f8f9"/><path d="m426.667 392.529c0-37.7-30.562-68.263-68.263-68.263h-23.694c37.701 0 68.263 30.562 68.263 68.263l.003 102.404c0 9.426-7.641 17.067-17.067 17.067h23.694c9.426 0 17.067-7.641 17.067-17.067z" fill="#dbecf3"/><path d="m298.722 388.294-8.584 123.706h-68.268l-8.589-123.706v-17.6l42.719-3.761 42.722 3.761z" fill="#5ce3ff"/><path d="m204.802 371.38v-112.066l102.4.009v112.057z" fill="#ffbfab"/><path d="m358.402 136.533c9.426 0 17.067 7.641 17.067 17.067v34.134c0 9.426-7.641 17.067-17.067 17.067h-204.799c-9.426 0-17.067-7.641-17.067-17.067v-34.134c0-9.426 7.641-17.067 17.067-17.067z" fill="#ffbfab"/><path d="m341.336 204.804c0 47.128-38.205 85.332-85.332 85.332-47.128 0-85.332-38.205-85.332-85.332l-.001-85.337c0-18.851 15.282-34.133 34.133-34.133h136.533z" fill="#ffcebf"/><g><g><path d="m221.869 186.927c-4.267 0-7.726-3.459-7.726-7.726v-8.533c0-4.267 3.459-7.726 7.726-7.726s7.726 3.459 7.726 7.726v8.533c.001 4.266-3.459 7.726-7.726 7.726z" fill="#474f54"/></g></g><g><g><path d="m290.136 186.927c-4.267 0-7.726-3.459-7.726-7.726v-8.533c0-4.267 3.459-7.726 7.726-7.726s7.726 3.459 7.726 7.726v8.533c0 4.266-3.459 7.726-7.726 7.726z" fill="#474f54"/></g></g><g><path d="m256.003 229.596c-8.808 0-17.031-4.745-21.46-12.384-2.14-3.692-.883-8.419 2.809-10.559 3.692-2.139 8.419-.882 10.559 2.809 1.675 2.888 4.775 4.682 8.092 4.682s6.417-1.794 8.092-4.682c2.139-3.692 6.868-4.95 10.559-2.809 3.692 2.14 4.949 6.868 2.809 10.559-4.428 7.638-12.651 12.384-21.46 12.384z" fill="#de6d03"/></g><g><circle cx="366.936" cy="435.2" fill="#cdcdd4" r="25.6"/><g><path d="m366.937 434.393c-4.267 0-7.726-3.459-7.726-7.726v-102.4c0-14.561-11.846-26.407-26.407-26.407h-25.6c-4.267 0-7.726-3.459-7.726-7.726s3.459-7.726 7.726-7.726h25.6c23.082 0 41.86 18.778 41.86 41.86v102.4c-.001 4.266-3.46 7.725-7.727 7.725z" fill="#12b0ff"/></g></g><path d="m221.87 512 17.066-102.4 17.067-14.933 17.067 14.933 17.068 102.4z" fill="#12b0ff"/><path d="m341.848 136.533h-68.778c-37.703 0-68.267-30.564-68.267-68.267h137.045z" fill="#474f54"/><path d="m256 366.933-25.597 2.253v10.547l8.533 29.867h34.134l8.533-29.867v-10.546z" fill="#0093fd"/><path d="m204.803 307.2-25.6 17.067 22.272 59.391c1.779 4.744 7.275 6.902 11.806 4.636l42.722-21.361z" fill="#99ecff"/><path d="m307.2 307.2 25.6 17.067-22.272 59.391c-1.779 4.744-7.275 6.902-11.806 4.636l-42.722-21.361z" fill="#99ecff"/><g><g><g><path d="m153.603 408.794c-4.267 0-7.726-3.459-7.726-7.726v-76.801c0-23.081 18.778-41.86 41.86-41.86h17.067c4.267 0 7.726 3.459 7.726 7.726s-3.459 7.726-7.726 7.726h-17.067c-14.561 0-26.407 11.846-26.407 26.407v76.801c-.001 4.268-3.46 7.727-7.727 7.727z" fill="#12b0ff"/></g></g><g><g><path d="m179.203 485.593h-8.534c-4.267 0-7.726-3.459-7.726-7.726s3.459-7.726 7.726-7.726h8.534c.445 0 .807-.362.807-.807v-34.134c0-7.191-2.839-13.913-7.994-18.929-5.153-5.013-11.96-7.656-19.16-7.468-14.149.388-25.659 12.548-25.659 27.107v33.423c0 .445.362.807.807.807h8.533c4.267 0 7.726 3.459 7.726 7.726s-3.459 7.726-7.726 7.726h-8.533c-8.965 0-16.26-7.294-16.26-16.26v-33.422c0-22.849 18.253-41.939 40.689-42.553 11.404-.323 22.191 3.891 30.36 11.839 8.171 7.95 12.671 18.606 12.671 30.004v34.133c-.001 8.966-7.295 16.26-16.261 16.26z" fill="#cdcdd4"/></g></g></g><path d="m204.802 280.596h9.475v20.088h-9.475z" fill="#ffbfab"/><path d="m297.728 280.596h9.475v20.088h-9.475z" fill="#ffbfab"/><path d="m204.803 41.86c4.267 0 7.726-3.459 7.726-7.726 0-18.528 14.831-33.647 33.244-34.133h-6.837c-11.86 0-22.3 6.054-28.417 15.235-.763 1.146-2.045 1.837-3.422 1.836l-6.996-.003c-1.956 5.323-3.025 11.071-3.025 17.065 0 4.266 3.46 7.726 7.727 7.726z" fill="#32393f"/></g></svg>